<svg width="226" height="234" viewBox="0 0 226 234" fill="none" xmlns="http://www.w3.org/2000/svg">
<path d="M24.295 25.2078C17.7957 17.9101 26.2925 7.05181 34.9388 11.6058L99.9896 45.8679C102.065 46.9609 104.491 47.1778 106.727 46.4702L184.023 22.01C194.103 18.8203 200.18 32.8879 190.949 38.0408L130.903 71.556C125.739 74.4384 124.846 81.4994 129.13 85.5766L200.191 153.209C207.611 160.271 198.98 172.157 189.968 167.287L124.905 132.127C122.175 130.652 118.868 130.728 116.209 132.328L48.5808 173.011C40.173 178.069 31.0654 167.618 37.2255 159.981L83.453 102.669C86.1479 99.328 86.0307 94.5279 83.1758 91.3223L24.295 25.2078Z" fill="url(#paint0_linear_33_26)"/>
<rect x="87.5176" width="37.2993" height="37.2993" rx="18.6497" fill="#B40000"/>
<path d="M0 201.32H4.128V233H0V201.32Z" fill="#222222"/>
<path d="M20.2991 212.72C21.5951 212.72 22.8511 212.992 24.0671 213.536C25.2991 214.08 26.3071 214.944 27.0911 216.128C27.8911 217.296 28.2911 218.824 28.2911 220.712V233H24.0671V221.528C24.0671 219.576 23.6111 218.16 22.6991 217.28C21.7871 216.384 20.6111 215.936 19.1711 215.936C18.2271 215.936 17.3151 216.208 16.4351 216.752C15.5711 217.28 14.8591 218.016 14.2991 218.96C13.7391 219.888 13.4591 220.944 13.4591 222.128V233H9.28312V213.296H13.4591V216.8C13.6031 216.256 13.9951 215.664 14.6351 215.024C15.2751 214.384 16.0911 213.84 17.0831 213.392C18.0751 212.944 19.1471 212.72 20.2991 212.72Z" fill="#222222"/>
<path d="M41.5999 230.12C42.8479 230.12 43.8559 229.92 44.6239 229.52C45.3919 229.12 45.8719 228.832 46.0639 228.656L48.1039 231.656C47.9439 231.8 47.5599 232.032 46.9519 232.352C46.3599 232.656 45.5919 232.936 44.6479 233.192C43.7199 233.448 42.6639 233.576 41.4799 233.576C39.6719 233.576 37.9919 233.176 36.4399 232.376C34.8879 231.56 33.6319 230.376 32.6719 228.824C31.7279 227.272 31.2559 225.376 31.2559 223.136C31.2559 220.88 31.7279 218.984 32.6719 217.448C33.6319 215.896 34.8879 214.72 36.4399 213.92C37.9919 213.12 39.6719 212.72 41.4799 212.72C42.6479 212.72 43.6879 212.864 44.5999 213.152C45.5119 213.424 46.2639 213.728 46.8559 214.064C47.4479 214.4 47.8399 214.656 48.0319 214.832L45.9679 217.832C45.8399 217.704 45.5919 217.512 45.2239 217.256C44.8719 216.984 44.3919 216.736 43.7839 216.512C43.1759 216.288 42.4479 216.176 41.5999 216.176C40.5759 216.176 39.5759 216.456 38.5999 217.016C37.6399 217.56 36.8479 218.352 36.2239 219.392C35.5999 220.432 35.2879 221.68 35.2879 223.136C35.2879 224.592 35.5999 225.848 36.2239 226.904C36.8479 227.944 37.6399 228.744 38.5999 229.304C39.5759 229.848 40.5759 230.12 41.5999 230.12Z" fill="#222222"/>
<path d="M55.1377 233H50.9378V199.976H55.1377V233Z" fill="#222222"/>
<path d="M63.6251 223.232C63.6251 225.296 64.0651 226.944 64.9451 228.176C65.8411 229.392 67.2091 230 69.0491 230C70.9051 230 72.2731 229.392 73.1531 228.176C74.0331 226.944 74.4731 225.296 74.4731 223.232V213.296H78.6011V223.808C78.6011 225.728 78.2251 227.424 77.4731 228.896C76.7371 230.368 75.6571 231.52 74.2331 232.352C72.8251 233.168 71.0971 233.576 69.0491 233.576C67.0171 233.576 65.2891 233.168 63.8651 232.352C62.4571 231.52 61.3771 230.368 60.6251 228.896C59.8891 227.424 59.5211 225.728 59.5211 223.808V213.296H63.6251V223.232Z" fill="#222222"/>
<path d="M90.087 212.72C91.111 212.72 92.063 212.824 92.943 213.032C93.839 213.24 94.607 213.488 95.247 213.776C95.903 214.064 96.367 214.32 96.639 214.544L94.983 217.184C94.663 216.896 94.087 216.576 93.255 216.224C92.423 215.856 91.495 215.672 90.471 215.672C89.351 215.672 88.399 215.896 87.615 216.344C86.831 216.776 86.439 217.408 86.439 218.24C86.439 219.072 86.839 219.736 87.639 220.232C88.455 220.712 89.543 221.112 90.903 221.432C91.991 221.688 93.007 222.032 93.951 222.464C94.911 222.896 95.687 223.496 96.279 224.264C96.871 225.016 97.167 226.024 97.167 227.288C97.167 228.44 96.927 229.424 96.447 230.24C95.967 231.04 95.319 231.688 94.503 232.184C93.687 232.664 92.775 233.016 91.767 233.24C90.759 233.464 89.735 233.576 88.695 233.576C87.479 233.576 86.383 233.448 85.407 233.192C84.431 232.952 83.607 232.664 82.935 232.328C82.279 231.976 81.799 231.672 81.495 231.416L83.151 228.44C83.567 228.84 84.247 229.264 85.191 229.712C86.151 230.16 87.239 230.384 88.455 230.384C89.799 230.384 90.887 230.104 91.719 229.544C92.551 228.968 92.967 228.224 92.967 227.312C92.967 226.624 92.767 226.072 92.367 225.656C91.967 225.24 91.431 224.904 90.759 224.648C90.087 224.392 89.351 224.168 88.551 223.976C87.783 223.8 87.031 223.568 86.295 223.28C85.575 222.992 84.911 222.624 84.303 222.176C83.711 221.712 83.239 221.152 82.887 220.496C82.535 219.824 82.359 219.04 82.359 218.144C82.359 217.008 82.719 216.04 83.439 215.24C84.159 214.424 85.103 213.8 86.271 213.368C87.439 212.936 88.711 212.72 90.087 212.72Z" fill="#222222"/>
<path d="M101.023 233V213.296H105.2V233H101.023ZM103.16 206.552C102.408 206.552 101.759 206.288 101.215 205.76C100.688 205.216 100.424 204.568 100.424 203.816C100.424 203.064 100.688 202.416 101.215 201.872C101.759 201.328 102.408 201.056 103.16 201.056C103.656 201.056 104.112 201.184 104.528 201.44C104.96 201.696 105.304 202.032 105.56 202.448C105.815 202.848 105.944 203.304 105.944 203.816C105.944 204.568 105.672 205.216 105.128 205.76C104.584 206.288 103.927 206.552 103.16 206.552Z" fill="#222222"/>
<path d="M108.175 213.296H112.663L119.095 229.136L125.527 213.296H129.991L121.567 233H116.647L108.175 213.296Z" fill="#222222"/>
<path d="M135.085 224C135.101 225.184 135.357 226.264 135.853 227.24C136.349 228.216 137.085 228.992 138.061 229.568C139.053 230.144 140.269 230.432 141.709 230.432C142.925 230.432 143.957 230.256 144.805 229.904C145.669 229.536 146.373 229.104 146.917 228.608C147.461 228.096 147.853 227.64 148.093 227.24L150.133 229.76C149.605 230.528 148.957 231.2 148.189 231.776C147.437 232.352 146.517 232.792 145.429 233.096C144.341 233.416 143.013 233.576 141.445 233.576C139.333 233.576 137.501 233.128 135.949 232.232C134.413 231.32 133.229 230.064 132.397 228.464C131.565 226.848 131.149 225 131.149 222.92C131.149 221 131.541 219.272 132.325 217.736C133.109 216.184 134.245 214.96 135.733 214.064C137.237 213.168 139.045 212.72 141.157 212.72C143.093 212.72 144.773 213.128 146.197 213.944C147.637 214.744 148.749 215.88 149.533 217.352C150.333 218.824 150.733 220.584 150.733 222.632C150.733 222.76 150.725 222.992 150.709 223.328C150.693 223.648 150.677 223.872 150.661 224H135.085ZM146.749 220.856C146.733 220.2 146.541 219.48 146.173 218.696C145.821 217.912 145.245 217.24 144.445 216.68C143.645 216.12 142.565 215.84 141.205 215.84C139.797 215.84 138.661 216.112 137.797 216.656C136.949 217.2 136.325 217.864 135.925 218.648C135.525 219.416 135.293 220.152 135.229 220.856H146.749Z" fill="#222222"/>
<path d="M163.672 201.32H172.768L185.824 233H175.912L173.896 227.504H162.592L160.552 233H150.616L163.672 201.32ZM165.712 219.44H170.776L168.28 212.456H168.208L165.712 219.44Z" fill="#171717"/>
<path d="M186.5 201.32H195.788V233H186.5V201.32Z" fill="#171717"/>
<path d="M199.263 201.32H210.207C213.583 201.32 216.391 202 218.631 203.36C220.887 204.704 222.583 206.568 223.719 208.952C224.855 211.336 225.423 214.064 225.423 217.136C225.423 220.224 224.855 222.96 223.719 225.344C222.583 227.728 220.887 229.6 218.631 230.96C216.391 232.32 213.583 233 210.207 233H199.263V201.32ZM208.551 209.504V224.816H209.367C210.695 224.816 211.815 224.48 212.727 223.808C213.639 223.136 214.335 222.224 214.815 221.072C215.295 219.904 215.535 218.608 215.535 217.184C215.535 215.744 215.295 214.448 214.815 213.296C214.351 212.128 213.655 211.208 212.727 210.536C211.815 209.848 210.695 209.504 209.367 209.504H208.551Z" fill="#171717"/>
<defs>
<linearGradient id="paint0_linear_33_26" x1="71.0619" y1="115.189" x2="186.984" y2="79.1597" gradientUnits="userSpaceOnUse">
<stop stop-color="#FF0000"/>
<stop offset="0.75" stop-color="#0017AF"/>
</linearGradient>
</defs>
</svg>
